<svg xmlns="http://www.w3.org/2000/svg" width="256" height="256"><path fill-opacity=".3" d="M28 2c0 1 5 1 7-1 2-1 2-1-2-1s-5 0-5 2m12 1-2 2-4 3c-3 3-4 4-4 2l-1-2-1 7v7l4-3 7-8 4-4 7-6-5-1c-3 0-4 0-5 3m32 0c-5 4-5 8-1 8l4-2c3-4 5-4 5 0v3l1-3 2-3 3-2c1-2 5-3 5-2l2 13c1 6 0 7-1 10l-3 3-1 2-3 4-5 7-4 5-2 3c0 1-2 4-5 6l-6 6-6 7c-5 6-7 6-10 7l-8 1h-4v-3l1-4c2-2 2-6 0-7-3-1-3-1-4 2-2 2-2 2-1 5 3 3 2 7 0 10-3 2-3 2-3 22 0 19 0 19 2 20 4 2 12 4 13 3s1 0 2 2 2 3 3 2l8-2 8-2h5l3-1c4-1 5-5 5-10 0-3 0-4 3-6 2-3 3-5 1-8 0-3-3-2-6 0-4 3-6 2-7-2-1-3-1-3 1-5l5-2 6-2c2-1 8-1 8 1s4 3 7 2c2 0 2 0 1-1-3-2 0-3 7-3h6v30l1 15-6 2-8 3c-3 2-35 3-35 1l-2-1-2 1c0 2-1 2-5 1l-7-3c-1-2-2-2-9-1l-8 1v5c0 5 0 6 2 7h5c2-2 21-2 26 0 6 2 3 5-6 6a349 349 0 0 0-20 2c-7 0-7 0-7 3s0 3 4 2l6-1 8-1 16-1h11c3 2 6 1 7-2 1-2 6-6 7-5s-2 5-4 6l-2 4-4 9-1 1-2 4-2 3-1 1c-2 0-2 4-1 10l2 7 1 5c0 2-1 3-6 6l-8 3-8 3c-2 2-5 2-12 2H29c-1 1-3-2-3-5s-5-11-6-11-8 6-8 8c-1 2-7 3-10 1-2-1-2 0-2 23v25h257v-25l-1-25c-2 2-18-4-18-6l-3-2-4-2-8-3c-5-2-8-3-11-6s-4-4-4-10c-1-8-6-15-12-19-4-3-5-5-2-6s9-7 9-9l2-3c2-3 4-10 4-15v-6a63 63 0 0 0-7-49c0-2-9-10-13-12l-5-3c0-1-10-5-15-5-7-1-26 1-30 3l-13 8c-1 1-5 3-8 3s-4-1-1-5v-3c0-2-2-3-2-1l-4 5-7 5-4 2c-2 2-2 2-5 1-5 0-5-1-2-4l1-2-3 2-4 1c-3-1-3 0 0 2 2 1 2 1-3 3-6 3-12 3-13 0h-4c0-3 2-6 3-6l3-2h3l3 1c1 0 2-1 1-2 0-2-1-3-2-3s-1-1 1-5c3-5 9-10 11-10 1 1 1 0 1-3-1-5 1-9 4-9l2-3c2-3 7-6 13-6l9-2 8-2 5-2 4-3 3-3c0-2-2-3-5-1l-5 1c-1-1-1-1 1-3l3-2 1-3c1-2 1-2-1-2l-4 3-3 2-7 4-7 4-3 2-6 2h-4v-5l-2-7-2-3c0-2-1-2-10-2S75 0 72 3m77-1-6 3-1 2c0 3 6 1 11-2l5-3 1-1c0-2-6-1-10 1M51 9l1 1 1-1-1-1-1 1m13 3-1 2-2 2-2 3c0 2-3 6-4 6l-5 3c-5 4-15 9-19 9-3 0-3 0-3 5v4h3l4-1c1 0 2-1 2-3l4-4 4-2 6-3 7-2c7-4 8-5 9-4 1 2 12-5 12-7 0-3-1-2-4 1-3 2-5 2-4-1h-2l-3 2c-2 0-2 0-2-2l2-4c1-1 2-5 0-5l-2 1m10 2c0 2 0 2 2 1l1-2-1-1-2 2m-18 1h1v-2l-1 2m32 2 3 3 1-2-2-2-2 1m-40 7 1 1 1-1-1-1-1 1m23 7 1 3c1 3 1 3-1 5l-2 2c0 2 3 0 7-4 3-3 3-3 1-5l-6-1M40 42l2 1 2-1-2-1-2 1m67 28c-2 0-3 1-4 3l-2 2v1c0 2-2 4-3 2l-4-3c-3-2-4-1-8 0l-7 3-3 2-6 1c-4 1-5 2-5 3l1 2c0 1 4 0 7-2h18a737 737 0 0 1 14-7c3-3 6-4 8-2 1 1 1 1 2-1l1-3 1-2-2 1h-2l-2-1-4 1m1 11v1h2c1-1 0-2-2-1m-77 8h2l1-1h-1l-2 1m18 2-4 2 3 3 3 3-2 1h-5c-2-2-5-1-8 2-3 2-5 6-5 7 0 2 3 1 4-1 2-1 11-6 12-5v2c0 3 3 4 7 2l6-2 3-1c1-2-1-6-3-6-3-1-3-2 1-4 3-2 3-4-2-4l-4-1c0-2-2-1-6 2m18 17h-7l-4 1-13 3a70 70 0 0 0-11 1l-1 2 3 3 5 1c2 2 26 3 30 1l3-3v-5c1-3-1-5-5-4m24 33-6 1-10 1-9 1c-1 1 0 2 2 4 3 3 4 3 6 2h10c7 0 7-1 13-6 2-2 2-4 0-4l-6 1M0 232a606 606 0 0 0 0 0" fill-rule="evenodd"/><path fill-opacity=".3" d="m28 1 1 1 2-1-1-1-2 1m15 0-1 3-1 1c-3 0-13 11-13 13s0 2 2 1l9-10 5-5 4-3h-5m34 1c0 3 4 3 7 0l3-2h-5c-4 0-5 0-5 2m17 7 2 3c1 1 1 1 1-2l-2-3c-1 0-2 0-1 2m27 2c-2 2-10 5-15 6-2 1-3 1-2 2 3 3 20 0 17-4-2-1 0-3 2-3l2-1c-1-2-3-2-4 0m6 3 1 2 2-2c1-2 1-2-1-2l-2 2m-30 4-1 3-2 3-4 5-5 8-5 7-9 11-18 21c-4 5-6 6-7 3-1-2-3-3-5 0h-4c-3-2-3-2-5 1l-3 2-1 3c0 2 0 3 5 2h4l-2 3c-1 2-3 3-5 3s-3 3 0 4v3l-2 5v3l4-4 7-6 6-5 5-5 5-4c2-2 3-3 7-3l9-2 6-2c6-1 4-3-3-3-6 0-11 2-11 5l-2 1c-3 0-3-4 0-6l4-5 6-7 4-6 2-3 2-3 5-6 4-6c0-2 6-9 11-14 3-3 4-4 1-6h-3m-31 6 2 1 1-1-1-1-2 1m-11 3-4 3h2c3 0 5-1 7-4s-1-2-5 1M28 42c0 2 4 3 6 1s1-3-2-3-4 0-4 2m118 10c-5 1-19 8-19 10 0 1-6 4-8 3v1c1 2 1 2-1 5-3 4-4 6-4 9l-2 4c-2 1-2 3-2 18l2 18 1 6c-1 5-2 6-9 13-17 16-19 18-23 26l-7 13c-4 5-4 5-3 9l3 11v7l-6 2-7 3-6 3c-4 2-6 2-14 3-10 0-11 0-12 2s-1 2-1 0l-1-3-3-5-2-6-2-3-3 2-4 4c-1 4-3 4-8 3l-5-2v48h257v-25c0-13 0-24-1-23 0 1-4 1-7-1l-6-3-6-3c-1-2-14-8-18-9-5-1-12-8-12-12l-4-13c-1-3-5-6-11-10-2-1-2-2-1-4l2-2c3 0 8-6 11-13 3-6 4-8 4-13l1-9c2-5 1-22-1-28-4-16-13-26-31-35-4-2-24-2-31-1M33 66c0 2 0 2 1 1v-2c-1-1-1-1-1 1m75 0c-2 1-2 2-1 2 2 1 4 0 6-2 1-2 1-2-1-2l-4 2m-18 4c-1 1 5 2 6 1v-1h-6m50 1v1c0 3-2 4-6 3l-4 1 1 2c2 0 1 2-1 3l-3 3c0 1 9 1 10-1h2l1 2c3 1-1 3-4 3l-7-1c-2 0-3 0-3-2l-1-2c-1-1-1 0-1 1l-1 2-2 2 2 1 3 2 8 5c4 2 5 2 6 1v-2c-2-1-2-1-1-2 2-1 3-1 3 1l5 4 7 1c3-1 2-4 0-5-3-2-4-5-2-6l3 1c1 2 2 2 3 1 1 0 1-2-1-5-3-5-2-11 2-12l1-2h-20m-14 8 1 2 1-3-1-1-1 2m-34 7v1l2-1-1-1-1 1m-19 1h-9l-7 1 4 1 4 1h3l5-2 2-1h-2m65 2c-2 1-2 1 0 1 2 1 3 0 3-1h-3m-75 6c-1 1 0 3 1 3v-3h-1m3 6c-1 3 1 5 4 4 2 0 3 0 3 2 1 3 3 3 3 0 1-4 0-5-3-4l-5-1c-1-2-1-2-2-1m49 19 1 5 1 1v-8c-1-2-2-1-2 2m4 1 1 3 2-3-2-3-1 3m-78 16c-1 1 0 1 1 1l1-1-1-1-1 1m58 0c-1 1 0 1 2 1l2-1-2-1-2 1m-71 3 1 1 1-2-1-1-1 2m18 0-1 3c0 1 2 2 8 2 9 1 11 0 9-2l-6-2-4-1h-6m-8 2-6 1c-5 0-5 2 1 3 4 0 8-2 8-3 0-2-1-2-3-1m26 11-4 3h3l10 1c5 0 6-1 6-3s0-2-3-2h-6c-1-1-4 0-6 1m-36 5 1 1 1-1c0-2-2-1-2 0m16 0h4c1-1 0-1-2-1s-3 0-2 1M0 232a578 578 0 0 0 0 0" fill-rule="evenodd"/><path fill-opacity=".5" d="m112 17-3 2h3c4-1 7-2 5-3l-5 1m-14 5h1v-1c0-1-1-1-1 1M29 42h2c1-1 0-1-1-1s-2 0-1 1m118 11-9 3-17 13-4 5-2 7-2 10c-1 6-1 19 1 19l2-2c0-2 2-3 2-3 2 0 2 1 0 2-2 2 0 6 4 6l5 3h7c6 0 8-3 6-9s-5-8-16-9l-7-2 5-16 1-2 2-3 2-3 3-4c2-2 3-2 15-3l14 1h4l6-2c4 0 5 1 8 3l3 6 3 2c1 1 2 5 0 5l-3 10-2 10-10 1c-10 1-17 3-17 6l-1 2-3 4-2 5-2 13c0 2-5 4-7 3-4-2-3 0 1 4l6 4 3 2c-1 1 0 1 1 2l2 1-2 1c-3-2-17-2-19-1s-2 1-1 3 2 2 7 2c4 0 6 0 7 2 1 1 3 2 8 2s6 0 9-2c3-3 3-9 0-9-2-1-3-7-3-20 0-5 0-6 2-6l4-1c1-1 1-1 2 1 1 4 4 5 12 4h9c2 1-4 10-7 10l-5 4c-3 2-4 4-4 6l-1 4-1 2c0 3-4 11-6 13l-1-1c-1-1-6 3-8 7-2 2-4 3-10 4-6 2-9 2-11 1-10-4-16-14-18-31v-5l-4 2c-4 2-10 6-18 15-2 1-5 7-8 12l-5 9-3 4c-2 4-2 5-1 8l1 11c1 8 1 8-8 11l-11 5c-4 2-7 2-15 3-9 0-10 1-10 3l-1 2-1 2h-1l-1-2c1-1 0-4-1-6l-3-7c-1-5-4-6-6-3-2 2-2 2-1 3 2 3-7 3-11 2l-4-2v47h257v-24c0-14 0-24-1-23h-5l-20-11-8-3-2-1-3-1-7-4-6-12c-3-11-3-12-10-16l-6-6 6-7c5-4 7-7 7-9l3-5c2-2 2-4 2-9l1-9c3-7 0-31-3-34l-1-3-8-11c-3-4-9-8-18-12-6-3-8-3-16-4l-15 1m-78 6a67 67 0 0 0-13 16c0 1-6 7-8 7l-2 2c-2 3-5 2-9-2-3-2-3-2-5 0-3 2-1 5 2 3 2-1 3-1 4 2 1 1 1 2-1 3l-1 3-1 2-2 2-1 3-1 2c1 1 8-5 12-10l6-5c2 0 7-6 8-9 0-2 2-4 4-6l3-4 3-4 3-4 2-1 1-1c0-3-1-2-4 1m-41 46 1 1 1-2-1-1-1 2m20 37h2c1-1 1-1-1-1s-2 0-1 1m92 65 1 1v-1l-1-1v1M0 233a552 552 0 0 0 0 0m11-11c-1 2 1 4 2 2v-3c-2-1-2-1-2 1" fill-rule="evenodd"/><path fill-opacity=".4" d="M158 56c-4 0-2 2 3 3 5 0 10-1 8-2-1-1-8-2-11-1m-18 2 1 1 1-1-1-1-1 1m31 0 2 3h1l2-2 2-1c-1-2-7-1-7 0m8 3c-1 2-1 3 4 8l6 7v9l-1 11-1 2-2 5c-2 3-3 3-8 3-4-1-5-1-4 1l4 2c2 1 3 2 3 5 0 2 0 3 3 3 5 0 6 1 6 5l-3 12-1 3-2 2-3 2c-1 4-4 8-6 9-3 1-3 3 0 4 2 0 2 1 2 2l-2 6c0 2-1 3-3 3s-3 1-3 2l-3 2-5 2-3 2-1 1c-1 1-14 4-17 3l-6 1c-1 1-1 1 1 3 7 5 8 6 8 11v4l3-1c5 0 7 1 7 5 0 2 0 2 4 2 7 0 10 1 10 4 0 2-3 4-5 3h-3c-2 1-4 2-5 1l-5 3-6 3-1 2c0 2-3 6-6 6l-3-4-5-5-5-4-3-34c1-5 0-7-2-10l-2-4-2-5-3-17c-1-2-2-2-8 4l-8 6-2 2c0 2-2 3-3 3l-2 2c0 2-4 10-6 11l-1 3-1 3-2 2-1 3c-2 1-2 18 0 19 2 0 1 5-1 7l-10 5-4 2-3 1-3 1-19 4c-2-1-3 0-6 3l-2 4c0 2-2 2-4 0-2-1-2-2-1-4 1-3 1-5-2-5-2 0-3-1-3-3s-1-2-3-1c-5 1-10 0-13-1l-2-2v46h54c51 0 53 0 53-2l4-14c1-1 2 9 1 11-3 5-2 5 16 5h17v-10c0-2 2-4 2-1l2 6v5h108v-24c0-13 0-23-1-22 0 1-6 0-14-4l-9-3-2-2c0-3-4-4-10-4-4-1-5-1-13-9-3-4-4-5-4-9 0-6-2-10-5-13l-5-4-8-7 4-5c3-3 4-4 3-5v-2c0-1 1-1 1 1 1 3 4 1 4-2s0-4 2-4c2 1 5-7 4-13 0-2 0-5 2-7 2-5 2-27 0-30l-2-5-4-8c-7-9-10-11-11-11l-4-2c-2-4-4-4-6-1m-23 1 2 1 2-1-2-1-2 1m-31 4-2 3-2 2-2 3c-2 2-2 3-1 4 2 2 2 1 5-4l3-5 1-2c1-1 0-2-1-2l-1 1m-10 20c-2 9-2 14-1 14l1-5 2-8c2-2 4-8 2-7h-2c-1-1-1 0-2 6m-73 3h2l-2-1v1m86 12 2 1c2 0 3 0 2-1h-4m-14 3h1v-2l-1 2m49 0c-2 1-1 2 2 2 4 0 6-2 3-2h-5m-36 3-4 2 4 2c5 2 5 2 7 0l3-3-5-2-5 1m24 4v5l2-2c2-2 3-3 2-1 0 1 1 2 3 1 2 0 3-1 3-2 0-2-1-2-5-2l-5 1m13 3 2 3c1 1 2 2 4 1l4 1c1 3 3 2 3-1 1-2 0-2-2-3-4-2-11-2-11-1m-19 20-1 3c0 2 3 3 5 0 3-2 2-3 0-3h-4m36 16c0 1 1 5 2 4v-5l-2 1m19 27 1 1v-1l-1-2v2M17 209l2 1 1-1-2-2c-2 0-2 0-1 2M0 233c0 13 1 18 1 11 0-11 0-13 1-12 2 1 4 1 4-1 0-3-2-3-4-2-1 1-1 0-1-9l-1 13m9-12v4c1 3 7 2 7 0v-5l-4-1c-1 0-2 0-3 2m191 6 1 1 1-2h-1l-1 1m-182 3c0 3 1 3 4 3s3 1 3 3l1 3c1 0 2-1 2-3s-1-3-4-5c-5-4-6-4-6-1m6 15c-2 0-1 2 2 3 2 1 2 1 2-2 0-2-1-2-4-1" fill-rule="evenodd"/></svg>