<svg xmlns="http://www.w3.org/2000/svg" width="256" height="256" viewBox="0 0 256 256" version="1.1">
	<path fill-opacity="0.294" d="M 28 1.500 C 28 3.461, 32.834 3.440, 35.441 1.468 C 37.237 0.110, 37.031 0, 32.691 0 C 29.188 0, 28 0.380, 28 1.500 M 40 2.500 C 39.477 3.875, 38.377 5, 37.555 5 C 36.733 5, 35.062 6.350, 33.842 8 C 31.416 11.281, 30 11.834, 30 9.500 C 30 8.675, 29.550 8, 29 8 C 28.428 8, 28 11.016, 28 15.047 L 28 22.094 31.848 19.002 C 33.964 17.301, 37.198 13.905, 39.034 11.455 C 40.870 9.005, 42.704 7, 43.109 7 C 44.261 7, 50 1.929, 50 0.911 C 50 0.410, 47.964 0, 45.475 0 C 41.569 0, 40.821 0.342, 40 2.500 M 71.750 3.288 C 67.169 7.211, 66.608 11, 70.606 11 C 72.195 11, 73.980 10.024, 75.179 8.500 C 78.014 4.895, 80.342 5.164, 79.500 9 C 79.085 10.887, 79.241 12, 79.921 12 C 80.514 12, 81 10.861, 81 9.469 C 81 7.973, 81.716 6.670, 82.750 6.284 C 83.713 5.925, 85.049 4.871, 85.719 3.940 C 87.222 1.857, 90.956 0.753, 91.118 2.344 C 91.614 7.209, 92.001 10.284, 92.771 15.484 C 93.531 20.616, 93.383 21.932, 91.730 24.734 C 90.670 26.530, 89.397 28, 88.901 28 C 88.406 28, 88 28.734, 88 29.632 C 88 30.529, 86.537 32.678, 84.750 34.407 C 82.963 36.135, 80.625 39.257, 79.555 41.344 C 78.486 43.431, 76.798 45.573, 75.805 46.104 C 74.812 46.636, 74 47.887, 74 48.886 C 74 49.888, 71.535 52.668, 68.500 55.090 C 65.475 57.504, 63 59.963, 63 60.555 C 63 61.148, 60.277 64.484, 56.950 67.971 C 51.591 73.585, 50.420 74.338, 46.700 74.562 C 44.390 74.702, 40.813 75.141, 38.750 75.539 L 35 76.262 35 72.690 C 35 70.725, 35.396 68.873, 35.881 68.574 C 37.743 67.423, 37.779 62.952, 35.934 61.965 C 33.477 60.650, 33.454 60.659, 31.546 63.570 C 30.008 65.918, 29.998 66.348, 31.431 68.535 C 33.769 72.103, 33.397 76.278, 30.500 79 C 28.001 81.348, 28 81.356, 28 100.639 C 28 119.601, 28.038 119.951, 30.250 121.199 C 34.203 123.429, 42.391 124.985, 43.210 123.662 C 43.650 122.950, 44.376 123.782, 45.083 125.811 C 45.941 128.270, 46.658 128.956, 47.869 128.474 C 48.766 128.117, 52.531 127.046, 56.236 126.093 C 59.941 125.141, 63.278 124.055, 63.653 123.681 C 64.646 122.687, 69 122.848, 69 123.878 C 69 124.361, 70.572 124.044, 72.493 123.173 C 75.988 121.589, 77.494 118.297, 76.971 113.386 C 76.628 110.167, 76.923 109.376, 79.500 106.595 C 81.993 103.904, 82.543 101.578, 81.393 98.582 C 80.577 96.456, 78.040 96.622, 75 99 C 71.289 101.903, 69.487 101.492, 68.250 97.462 C 67.295 94.351, 67.418 93.689, 69.271 91.962 C 70.429 90.883, 72.767 90, 74.466 90 C 76.165 90, 78.566 89.292, 79.802 88.426 C 82.378 86.622, 88 87.338, 88 89.471 C 88 91.096, 92.458 92.307, 95.217 91.431 C 96.694 90.962, 96.913 90.564, 96.004 90.002 C 93.351 88.363, 96.325 87, 102.559 87 L 109 87 109.046 94.750 C 109.072 99.013, 109.184 109.239, 109.296 117.475 L 109.500 132.451 103.519 133.779 C 100.230 134.510, 96.769 135.804, 95.829 136.655 C 93.389 138.862, 60.742 140.036, 61.200 137.900 C 61.394 136.993, 60.619 136.500, 59 136.500 C 57.261 136.500, 56.580 136.990, 56.762 138.109 C 56.992 139.530, 56.446 139.588, 52.115 138.609 C 49.415 137.999, 46.329 136.705, 45.256 135.733 C 43.501 134.143, 42.540 134.081, 35.653 135.105 L 28 136.243 28 141.453 C 28 145.967, 28.329 146.838, 30.466 147.982 C 32.528 149.086, 33.208 149.072, 34.620 147.901 C 36.927 145.985, 56.229 145.964, 60.750 147.871 C 66.656 150.363, 64.281 152.514, 54.500 153.531 C 50.650 153.931, 46.375 154.423, 45 154.623 C 43.625 154.823, 39.238 155.280, 35.250 155.638 C 28.087 156.281, 28 156.323, 28 159.156 C 28 161.965, 28.087 162.010, 32.250 161.375 C 34.587 161.018, 37.310 160.309, 38.301 159.801 C 39.291 159.292, 42.891 158.937, 46.301 159.012 C 49.710 159.086, 56.991 158.678, 62.480 158.104 C 68.925 157.431, 72.804 157.404, 73.430 158.030 C 75.502 160.102, 79.073 159.088, 80.102 156.138 C 80.951 153.703, 85.565 150.231, 86.590 151.256 C 87.512 152.179, 85.499 156.098, 83.396 157.476 C 82.078 158.340, 81 159.920, 81 160.989 C 81 163.387, 77.928 170, 76.815 170 C 76.367 170, 76 170.605, 76 171.345 C 76 172.085, 75.100 173.505, 74 174.500 C 72.900 175.495, 72 176.915, 72 177.655 C 72 178.395, 71.580 179, 71.067 179 C 69.298 179, 68.864 183.033, 70.016 188.758 C 70.652 191.916, 71.584 195.281, 72.086 196.236 C 72.589 197.191, 73 199.257, 73 200.827 C 73 203.348, 72.242 204.052, 66.521 206.841 C 62.958 208.578, 59.577 210, 59.007 210 C 57.941 210, 56.861 210.477, 51.181 213.455 C 48.568 214.825, 45.978 215.121, 39.015 214.848 C 34.149 214.656, 29.837 214.831, 29.433 215.234 C 28.282 216.384, 26.067 212.797, 26.032 209.729 C 25.999 206.868, 21.442 199, 19.818 199 C 18.518 199, 12.460 205.156, 11.699 207.250 C 10.971 209.253, 5.138 209.680, 1.934 207.965 C 0.046 206.954, 0 207.517, 0 231.454 L 0 255.979 128.250 255.739 L 256.500 255.500 256.768 230.680 C 256.943 214.396, 256.693 206.072, 256.040 206.475 C 254.213 207.604, 238 201.842, 238 200.064 C 238 199.564, 236.465 198.648, 234.588 198.029 C 232.712 197.410, 230.965 196.350, 230.705 195.675 C 230.446 194.999, 227.144 193.635, 223.367 192.644 C 218.425 191.347, 215.354 189.813, 212.414 187.171 C 208.669 183.806, 208.272 182.966, 207.664 177.104 C 206.856 169.318, 202.313 161.793, 196.129 158 C 191.609 155.227, 190.808 152.520, 194.250 151.645 C 197.436 150.836, 203 145.473, 203 143.211 C 203 142.166, 203.848 140.543, 204.884 139.605 C 207.369 137.356, 209.348 130.058, 208.763 125.302 C 208.505 123.211, 208.726 120.375, 209.254 119 C 213.583 107.715, 210.777 83.518, 204.042 74.059 C 202.919 72.482, 201.996 70.811, 201.991 70.346 C 201.967 68.181, 193.037 59.835, 188.750 57.971 C 186.138 56.836, 184 55.560, 184 55.137 C 184 53.894, 173.906 50.239, 168.743 49.613 C 161.504 48.736, 143.151 50.851, 138.500 53.100 C 133.497 55.518, 126.954 59.506, 126.126 60.641 C 124.859 62.379, 120.945 64, 118.014 64 C 114.651 64, 114.197 62.592, 116.500 59.304 C 117.325 58.126, 117.727 56.451, 117.393 55.581 C 116.751 53.909, 115 53.392, 115 54.875 C 115 55.356, 113.006 57.831, 110.568 60.375 C 107.602 63.471, 105.307 65, 103.625 65 C 102.220 65, 100.476 65.910, 99.666 67.066 C 98.474 68.768, 97.584 69.013, 94.610 68.455 C 90.429 67.670, 90.166 66.855, 93.189 64.039 C 94.891 62.453, 95.029 62, 93.811 62 C 92.950 62, 91.661 62.704, 90.947 63.564 C 90.123 64.557, 88.799 64.916, 87.324 64.545 C 84.373 63.804, 84.284 65.375, 87.204 66.678 C 89.230 67.582, 88.943 67.882, 83.680 70.372 C 77.505 73.293, 71.696 73.256, 70.557 70.289 C 70.089 69.068, 69.688 69.014, 68.488 70.010 C 67.271 71.020, 67 70.938, 67 69.557 C 67 67.025, 68.886 64, 70.464 64 C 71.230 64, 72.593 63.264, 73.493 62.364 C 74.714 61.144, 75.417 61.017, 76.264 61.864 C 76.889 62.489, 78.148 63, 79.061 63 C 80.294 63, 80.599 62.355, 80.245 60.500 C 79.982 59.125, 79.144 58, 78.383 58 C 76.519 58, 76.628 57.191, 79.118 52.500 C 81.576 47.872, 87.741 42.687, 89.832 43.489 C 90.982 43.930, 91.168 43.183, 90.776 39.701 C 90.295 35.438, 92.322 31, 94.750 31 C 95.261 31, 96.192 29.874, 96.819 28.498 C 98.564 24.669, 103.736 22.011, 109.500 21.982 C 112.250 21.968, 116.350 21.116, 118.610 20.090 C 120.871 19.063, 124.581 17.909, 126.855 17.525 C 129.129 17.140, 131.272 16.369, 131.617 15.811 C 131.962 15.253, 133.764 14.161, 135.622 13.385 C 137.852 12.453, 139 11.298, 139 9.987 C 139 7.745, 137.260 7.469, 133.611 9.131 C 132.245 9.754, 130.311 9.947, 129.314 9.560 C 127.596 8.894, 127.605 8.778, 129.500 7.360 C 130.600 6.537, 132.004 5.556, 132.619 5.182 C 133.234 4.807, 134.052 3.488, 134.436 2.250 C 135.013 0.393, 134.756 0, 132.961 0 C 131.766 0, 129.903 1.125, 128.821 2.500 C 127.740 3.875, 126.313 5, 125.651 5 C 124.988 5, 122.051 6.800, 119.123 9 C 116.195 11.200, 113.092 13, 112.228 13 C 111.364 13, 109.869 13.713, 108.906 14.585 C 107.943 15.456, 105.389 16.406, 103.230 16.696 L 99.305 17.222 98.683 11.974 C 98.341 9.087, 97.373 5.964, 96.531 5.034 C 95.689 4.104, 95 2.590, 95 1.671 C 95 0.221, 93.709 0.005, 85.250 0.038 C 75.742 0.074, 75.407 0.155, 71.750 3.288 M 148.950 2.447 C 146.997 3.728, 144.522 4.945, 143.450 5.152 C 142.377 5.358, 141.500 6.196, 141.500 7.014 C 141.500 9.527, 147.540 8.493, 152.656 5.104 C 155.234 3.397, 157.716 2, 158.171 2 C 158.627 2, 159 1.550, 159 1 C 159 -0.839, 152.542 0.090, 148.950 2.447 M 51 9 C 51 9.550, 51.450 10, 52 10 C 52.550 10, 53 9.550, 53 9 C 53 8.450, 52.550 8, 52 8 C 51.450 8, 51 8.450, 51 9 M 64.250 11.662 C 63.563 11.940, 63 12.800, 63 13.575 C 63 14.349, 62.100 15.545, 61 16.232 C 59.900 16.919, 59 18.064, 59 18.776 C 59 20.712, 55.944 25, 54.565 25 C 53.902 25, 51.819 26.376, 49.935 28.058 C 45.342 32.159, 34.651 37.323, 30.971 37.218 C 28.098 37.137, 28 37.285, 28 41.692 L 28 46.250 31.125 45.625 C 32.844 45.281, 34.632 45, 35.099 45 C 35.566 45, 36.630 43.682, 37.463 42.071 C 38.296 40.460, 39.927 38.840, 41.088 38.472 C 42.248 38.104, 44.028 36.972, 45.043 35.957 C 46.058 34.942, 48.601 33.813, 50.694 33.447 C 52.787 33.082, 56.075 31.807, 58 30.614 C 64.593 26.528, 65.693 26.093, 66.749 27.149 C 68.273 28.673, 79 22.330, 79 19.905 C 79 17.354, 78.128 17.503, 74.886 20.609 C 72.130 23.249, 69.616 23.165, 70.651 20.468 C 71.372 18.589, 70.058 18.565, 68.610 20.431 C 68 21.218, 66.600 22.005, 65.500 22.181 C 63.894 22.437, 63.567 22.024, 63.840 20.088 C 64.027 18.762, 64.815 17.042, 65.590 16.267 C 67.062 14.795, 67.552 10.942, 66.250 11.079 C 65.838 11.122, 64.938 11.385, 64.250 11.662 M 74 14.122 C 74 15.896, 74.247 16.040, 75.500 15 C 76.325 14.315, 77 13.360, 77 12.878 C 77 12.395, 76.325 12, 75.500 12 C 74.638 12, 74 12.902, 74 14.122 M 56.079 14.583 C 56.127 15.748, 56.364 15.985, 56.683 15.188 C 56.972 14.466, 56.936 13.603, 56.604 13.271 C 56.272 12.939, 56.036 13.529, 56.079 14.583 M 88 16.800 C 88 17.835, 90.165 20, 91.200 20 C 91.640 20, 92 19.100, 92 18 C 92 16.667, 91.333 16, 90 16 C 88.900 16, 88 16.360, 88 16.800 M 48 24 C 48 24.550, 48.450 25, 49 25 C 49.550 25, 50 24.550, 50 24 C 50 23.450, 49.550 23, 49 23 C 48.450 23, 48 23.450, 48 24 M 71 31.453 C 71 31.702, 71.529 33.067, 72.176 34.486 C 73.203 36.740, 73.076 37.258, 71.176 38.590 C 69.979 39.428, 69 40.524, 69 41.025 C 69 42.592, 72.311 40.756, 75.828 37.239 C 79.033 34.034, 79.108 33.797, 77.350 32.465 C 75.634 31.165, 71 30.426, 71 31.453 M 40 42 C 40 42.550, 40.900 43, 42 43 C 43.100 43, 44 42.550, 44 42 C 44 41.450, 43.100 41, 42 41 C 40.900 41, 40 41.450, 40 42 M 107.200 69.727 C 104.831 70.019, 103.638 70.821, 102.974 72.567 C 102.466 73.905, 101.602 75, 101.056 75 C 100.510 75, 100.304 75.629, 100.600 76.399 C 101.399 78.483, 98.900 79.573, 97.806 77.618 C 97.294 76.703, 95.441 75.355, 93.688 74.622 C 90.893 73.454, 89.885 73.528, 85.502 75.228 C 82.754 76.294, 79.869 77.691, 79.091 78.333 C 78.313 78.975, 76.962 79.527, 76.088 79.560 C 75.215 79.593, 72.337 80.215, 69.694 80.943 C 66.208 81.902, 65.041 82.664, 65.444 83.715 C 65.750 84.512, 66 85.352, 66 85.582 C 66 86.567, 69.948 85.873, 72.995 84.352 C 75.577 83.064, 76.699 82.955, 78.135 83.852 C 80.322 85.218, 86.553 85.350, 90.601 84.117 C 92.195 83.631, 95.525 82.645, 98 81.926 C 100.802 81.112, 103.565 79.370, 105.323 77.309 C 108.217 73.916, 110.756 73.156, 112.701 75.101 C 113.502 75.902, 114.001 75.561, 114.535 73.851 C 114.939 72.558, 115.758 71.187, 116.356 70.804 C 116.953 70.422, 117.093 69.760, 116.667 69.333 C 116.240 68.907, 115.484 69.216, 114.987 70.021 C 114.267 71.185, 113.830 71.230, 112.842 70.242 C 112.159 69.559, 111.352 69.072, 111.050 69.160 C 110.748 69.248, 109.015 69.503, 107.200 69.727 M 108.095 80.941 C 107.101 81.556, 107.073 81.927, 107.980 82.488 C 108.637 82.894, 109.624 82.776, 110.174 82.226 C 111.477 80.923, 109.801 79.887, 108.095 80.941 M 31 88.969 C 31 89.501, 31.675 89.678, 32.500 89.362 C 33.325 89.045, 34 88.609, 34 88.393 C 34 88.177, 33.325 88, 32.500 88 C 31.675 88, 31 88.436, 31 88.969 M 48.612 90.617 L 44.760 93.235 47.925 95.936 L 51.091 98.638 48.645 99.752 C 46.769 100.607, 45.777 100.557, 44.385 99.540 C 42.218 97.955, 39.349 98.834, 35.785 102.175 C 33.490 104.326, 31 108.103, 31 109.434 C 31 110.611, 33.808 109.937, 35.027 108.467 C 36.578 106.599, 46.092 101.939, 47.093 102.557 C 47.489 102.802, 47.588 103.858, 47.315 104.905 C 46.601 107.633, 50.250 108.521, 54.161 106.570 C 55.891 105.706, 58.540 105, 60.047 105 C 61.553 105, 63 104.438, 63.262 103.750 C 64.047 101.686, 62.269 98.220, 60.065 97.521 C 57.319 96.649, 57.460 95.567, 60.500 94.182 C 64.299 92.451, 63.646 90.348, 59.257 90.183 C 57.199 90.106, 55.361 89.583, 55.174 89.021 C 54.622 87.367, 52.713 87.831, 48.612 90.617 M 67 108.052 C 65.625 108.433, 62.587 108.516, 60.250 108.236 C 57.571 107.916, 56 108.125, 56 108.803 C 56 109.879, 50.374 111.028, 42.628 111.533 C 40.358 111.681, 37.375 112.014, 36 112.274 C 34.625 112.533, 32.938 112.802, 32.250 112.872 C 31.563 112.943, 31 113.864, 31 114.921 C 31 116.278, 31.953 117.045, 34.250 117.536 C 36.038 117.918, 37.950 118.572, 38.500 118.989 C 41.192 121.030, 65.385 121.693, 69.456 119.838 C 70.808 119.222, 71.788 117.889, 71.807 116.641 C 71.825 115.463, 72.126 113.375, 72.477 112 C 73.263 108.911, 70.665 107.038, 67 108.052 M 91.022 140.745 C 88.009 140.952, 85.252 141.593, 84.895 142.170 C 84.530 142.760, 80.285 143.282, 75.205 143.360 C 70.233 143.437, 65.867 143.799, 65.502 144.164 C 65.137 144.529, 66.329 146.252, 68.150 147.993 C 70.987 150.704, 71.894 151.044, 74.481 150.366 C 76.141 149.931, 80.433 149.558, 84.018 149.537 C 90.593 149.500, 91.203 149.244, 96.649 144.242 C 98.798 142.268, 99.146 139.662, 97.191 140.185 C 96.811 140.287, 94.035 140.539, 91.022 140.745 M 0.434 231.500 C 0.433 245.250, 0.574 251.014, 0.747 244.308 C 0.919 237.603, 0.920 226.353, 0.748 219.308 C 0.576 212.264, 0.434 217.750, 0.434 231.500 " stroke="none" fill="black" fill-rule="evenodd"/>
	<path fill-opacity="0.333" d="M 28 1 C 28 1.550, 28.423 2, 28.941 2 C 29.459 2, 30.160 1.550, 30.500 1 C 30.840 0.450, 30.416 0, 29.559 0 C 28.702 0, 28 0.450, 28 1 M 43.200 1.200 C 42.540 1.860, 42 2.985, 42 3.700 C 42 4.415, 41.375 5, 40.611 5 C 38.282 5, 28 15.645, 28 18.057 C 28 19.974, 28.217 20.082, 29.750 18.933 C 32.426 16.926, 37.310 11.717, 39.139 8.918 C 40.040 7.539, 42.399 5.306, 44.382 3.955 C 46.364 2.605, 47.989 1.163, 47.993 0.750 C 48.004 -0.445, 44.518 -0.118, 43.200 1.200 M 77 2 C 77 4.661, 80.963 4.680, 84.139 2.033 L 86.500 0.067 81.750 0.033 C 77.656 0.005, 77 0.276, 77 2 M 93.686 8.909 C 93.978 10.023, 94.881 11.486, 95.693 12.160 C 96.947 13.201, 97.119 12.943, 96.835 10.452 C 96.633 8.682, 95.836 7.391, 94.828 7.200 C 93.587 6.965, 93.293 7.405, 93.686 8.909 M 120.598 10.892 C 118.832 12.843, 110.986 16.287, 105.605 17.473 C 103.504 17.936, 103.011 18.411, 103.808 19.208 C 106.860 22.260, 123.525 18.542, 120.911 15.393 C 119.492 13.682, 120.598 12, 123.142 12 C 124.261 12, 124.989 11.468, 124.771 10.813 C 124.106 8.819, 122.445 8.851, 120.598 10.892 M 127 14 C 127 15.100, 127.434 16, 127.965 16 C 128.495 16, 129.411 15.100, 130 14 C 130.907 12.305, 130.760 12, 129.035 12 C 127.667 12, 127 12.655, 127 14 M 96.667 17.667 C 96.300 18.033, 96 19.358, 96 20.610 C 96 21.862, 95.210 23.475, 94.245 24.193 C 93.280 24.912, 91.592 27.232, 90.495 29.348 C 89.398 31.465, 87.022 34.776, 85.215 36.706 C 83.408 38.637, 81.089 41.855, 80.060 43.858 C 79.032 45.861, 75.110 50.661, 71.345 54.524 C 64.083 61.977, 58.320 68.645, 52.788 75.995 C 48.984 81.051, 46.525 82.114, 45.723 79.048 C 45.082 76.597, 42.749 76.394, 40.545 78.598 C 39.102 80.041, 38.720 80.047, 36.601 78.658 C 34.408 77.221, 34.117 77.280, 32.134 79.561 C 30.968 80.902, 29.560 82, 29.007 82 C 28.453 82, 28 83.241, 28 84.757 C 28 87.426, 28.149 87.503, 32.671 87.143 L 37.341 86.771 34.921 89.830 C 33.555 91.557, 31.520 92.913, 30.250 92.945 C 27.569 93.011, 27.098 96.440, 29.636 97.414 C 31.151 97.995, 31.151 98.176, 29.636 99.850 C 28.736 100.844, 28 103.177, 28 105.034 L 28 108.412 31.807 104.328 C 33.901 102.083, 37.285 99.389, 39.326 98.341 C 41.481 97.236, 43.764 94.982, 44.769 92.969 C 45.833 90.837, 47.936 88.827, 50.224 87.754 C 52.272 86.794, 54.646 84.943, 55.499 83.642 C 56.713 81.789, 58.233 81.153, 62.493 80.713 C 65.486 80.404, 69.188 79.469, 70.718 78.636 C 72.248 77.802, 75.200 76.845, 77.278 76.509 C 82.901 75.601, 80.750 74, 73.906 74 C 67.694 74, 63 75.986, 63 78.615 C 63 79.377, 62.100 80, 61 80 C 58.158 80, 58.337 75.664, 61.259 73.750 C 62.501 72.936, 64.169 70.972, 64.966 69.385 C 65.762 67.798, 68.346 64.659, 70.707 62.409 C 73.068 60.159, 75 57.416, 75 56.314 C 75 55.212, 75.900 53.495, 77 52.500 C 78.100 51.505, 79 50.333, 79 49.896 C 79 49.459, 81.025 46.958, 83.500 44.337 C 85.975 41.717, 88 38.856, 88 37.978 C 88 36.416, 93.779 29.165, 99.250 23.863 C 102.478 20.735, 102.582 20.163, 100.250 18.392 C 98.240 16.866, 97.597 16.736, 96.667 17.667 M 66 24 C 66 24.550, 66.675 25, 67.500 25 C 68.325 25, 69 24.550, 69 24 C 69 23.450, 68.325 23, 67.500 23 C 66.675 23, 66 23.450, 66 24 M 54.559 26.810 L 50.619 29.500 53.370 29.822 C 56.276 30.163, 58.469 28.860, 60.090 25.832 C 61.514 23.171, 59.323 23.558, 54.559 26.810 M 28 42 C 28 44.290, 31.788 44.812, 33.800 42.800 C 35.812 40.788, 35.164 40, 31.500 40 C 28.667 40, 28 40.381, 28 42 M 145.588 52.113 C 140.922 53.051, 127.007 60.296, 126.994 61.794 C 126.981 63.195, 120.928 65.910, 119.234 65.275 C 117.719 64.708, 117.673 64.838, 118.868 66.308 C 120.042 67.750, 119.970 68.366, 118.368 70.627 C 114.951 75.451, 114.030 77.476, 114.015 80.193 C 114.007 81.675, 113.169 83.475, 112.154 84.193 C 110.479 85.379, 110.324 86.976, 110.472 101.500 C 110.588 112.786, 111.025 118.115, 111.956 119.586 C 112.875 121.037, 113.058 123.129, 112.559 126.457 C 111.906 130.808, 111.104 131.935, 103.712 138.871 C 87.017 154.539, 85.176 156.675, 81.023 165.190 C 78.793 169.760, 75.413 175.615, 73.511 178.200 C 70.115 182.818, 70.079 182.971, 71.460 186.887 C 72.233 189.079, 73.171 193.967, 73.544 197.750 L 74.222 204.627 68.236 207.314 C 64.944 208.791, 61.718 210, 61.067 210 C 60.417 210, 57.773 211.192, 55.192 212.650 C 51.141 214.938, 49.133 215.342, 40.500 215.611 C 31.265 215.898, 30.406 216.097, 29.265 218.211 C 28.054 220.454, 28.029 220.457, 28.015 218.372 C 28.007 217.202, 27.360 215.714, 26.578 215.065 C 25.796 214.416, 24.859 212.124, 24.495 209.972 C 24.132 207.820, 22.935 204.916, 21.836 203.519 L 19.838 200.979 16.850 203.107 C 15.206 204.277, 13.477 206.246, 13.007 207.481 C 11.811 210.627, 9.752 211.131, 4.524 209.557 L -0 208.196 0 232.080 L 0 255.964 128.250 255.732 L 256.500 255.500 256.681 231 C 256.780 217.525, 256.630 207.062, 256.348 207.748 C 255.825 209.019, 251.515 208.513, 249.498 206.945 C 248.946 206.517, 246.025 205.192, 243.007 204.003 C 239.988 202.813, 237.274 201.443, 236.974 200.957 C 235.980 199.349, 223.108 193.111, 219.317 192.400 C 214.462 191.489, 207 184.167, 207 180.315 C 207 177.260, 205.444 172.015, 203.105 167.184 C 201.702 164.284, 198.377 161.226, 191.623 156.621 C 190.058 155.554, 189.940 154.981, 190.909 153.171 C 191.548 151.977, 192.641 151, 193.339 151 C 195.519 151, 200.705 144.788, 204.457 137.682 C 207.442 132.028, 208.039 129.895, 207.954 125.182 C 207.897 122.057, 208.334 117.928, 208.925 116.007 C 210.526 110.803, 210.250 94.242, 208.457 87.932 C 203.824 71.627, 194.943 61.845, 177 53.283 C 172.823 51.290, 153.296 50.562, 145.588 52.113 M 33 66 C 33 67.867, 33.267 68.133, 34.200 67.200 C 35.133 66.267, 35.133 65.733, 34.200 64.800 C 33.267 63.867, 33 64.133, 33 66 M 107.590 65.901 C 106.453 67.157, 106.234 68.026, 106.944 68.465 C 108.552 69.459, 111.343 68.282, 112.761 66.011 C 113.886 64.210, 113.771 64, 111.663 64 C 110.369 64, 108.536 64.855, 107.590 65.901 M 89.550 69.919 C 88.841 71.066, 94.542 72.401, 96.082 71.449 C 96.890 70.950, 96.826 70.504, 95.857 69.890 C 94.056 68.749, 90.262 68.766, 89.550 69.919 M 139.882 70.920 C 139.816 71.239, 139.832 71.885, 139.917 72.355 C 140.302 74.503, 137.619 76.019, 134.476 75.430 C 132.344 75.029, 130.957 75.260, 130.437 76.101 C 129.980 76.842, 130.142 77.547, 130.823 77.774 C 132.762 78.421, 132.161 79.970, 129.500 81.182 C 128.125 81.808, 127 82.903, 127 83.613 C 127 85.285, 136.208 84.877, 136.773 83.180 C 137.325 81.526, 139 81.704, 139 83.417 C 139 84.196, 139.563 85.062, 140.250 85.341 C 142.547 86.273, 138.701 88.091, 135.625 87.527 C 134.044 87.237, 131.231 87, 129.375 87 C 126.701 87, 126 86.597, 126 85.059 C 126 83.991, 125.550 82.840, 125 82.500 C 124.450 82.160, 124 82.809, 124 83.941 C 124 85.105, 123.348 86, 122.500 86 C 121.675 86, 121 86.675, 121 87.500 C 121 88.325, 121.694 89, 122.542 89 C 123.390 89, 125.023 89.875, 126.172 90.946 C 127.320 92.016, 130.660 94.147, 133.593 95.683 C 137.963 97.971, 139.158 98.240, 140.213 97.175 C 141.264 96.114, 141.157 95.682, 139.630 94.821 C 138.121 93.970, 138.025 93.599, 139.130 92.898 C 141.242 91.561, 142 91.827, 142 93.907 C 142 95.340, 143.356 96.240, 147.457 97.530 C 150.459 98.474, 153.609 98.980, 154.457 98.655 C 156.762 97.770, 156.322 95.441, 153.500 93.592 C 151.009 91.959, 150.154 88.641, 151.940 87.537 C 152.458 87.217, 153.810 87.953, 154.946 89.172 C 156.419 90.754, 157.319 91.081, 158.087 90.313 C 158.854 89.546, 158.541 88.020, 156.994 84.989 C 154.265 79.639, 154.916 74.451, 158.523 72.808 C 159.851 72.203, 160.686 71.300, 160.378 70.803 C 159.779 69.834, 140.080 69.947, 139.882 70.920 M 126 79.059 C 126 80.191, 126.450 80.840, 127 80.500 C 127.550 80.160, 128 79.234, 128 78.441 C 128 77.648, 127.550 77, 127 77 C 126.450 77, 126 77.927, 126 79.059 M 91.500 86 C 91.160 86.550, 91.584 87, 92.441 87 C 93.298 87, 94 86.550, 94 86 C 94 85.450, 93.577 85, 93.059 85 C 92.541 85, 91.840 85.450, 91.500 86 M 72.505 86.974 C 71.408 87.372, 67.404 87.476, 63.607 87.204 C 58.573 86.844, 56.894 87.020, 57.410 87.855 C 57.800 88.485, 59.246 89, 60.625 89 C 62.003 89, 64.031 89.481, 65.130 90.069 C 66.441 90.771, 67.535 90.802, 68.314 90.160 C 68.966 89.621, 71.061 88.777, 72.969 88.285 C 74.877 87.792, 76.002 87.133, 75.469 86.820 C 74.936 86.506, 73.602 86.576, 72.505 86.974 M 137.528 88.911 C 135.758 89.603, 135.834 89.735, 138.278 90.202 C 140.162 90.563, 141 90.304, 141 89.361 C 141 87.852, 140.429 87.778, 137.528 88.911 M 62.510 94.984 C 61.773 96.177, 62.709 98, 64.059 98 C 65.276 98, 65.284 95.293, 64.069 94.543 C 63.557 94.226, 62.856 94.425, 62.510 94.984 M 66.421 101.347 C 65.262 104.366, 66.670 106.016, 69.861 105.378 C 72.252 104.900, 72.923 105.182, 73.467 106.895 C 74.345 109.662, 75.657 109.574, 76.204 106.712 C 76.925 102.941, 76.141 102.022, 72.780 102.694 C 70.473 103.155, 69.368 102.856, 68.377 101.502 C 67.173 99.854, 66.999 99.840, 66.421 101.347 M 115.100 119.750 C 115.155 121.263, 115.543 123.625, 115.962 125 C 116.624 127.168, 116.824 127.266, 117.474 125.737 C 117.906 124.721, 117.701 123.345, 116.989 122.487 C 116.076 121.387, 116.045 120.651, 116.869 119.658 C 117.481 118.920, 117.687 118.020, 117.325 117.658 C 115.922 116.255, 115.004 117.117, 115.100 119.750 M 119 121 C 119 123.089, 119.425 124.025, 120.250 123.750 C 120.938 123.521, 121.500 122.283, 121.500 121 C 121.500 119.717, 120.938 118.479, 120.250 118.250 C 119.425 117.975, 119 118.911, 119 121 M 40.500 137 C 40.160 137.550, 40.610 138, 41.500 138 C 42.390 138, 42.840 137.550, 42.500 137 C 42.160 136.450, 41.710 136, 41.500 136 C 41.290 136, 40.840 136.450, 40.500 137 M 98.500 137 C 98.148 137.569, 99.009 138, 100.500 138 C 101.991 138, 102.852 137.569, 102.500 137 C 102.160 136.450, 101.260 136, 100.500 136 C 99.740 136, 98.840 136.450, 98.500 137 M 28 139.559 C 28 140.416, 28.450 140.840, 29 140.500 C 29.550 140.160, 30 139.459, 30 138.941 C 30 138.423, 29.550 138, 29 138 C 28.450 138, 28 138.702, 28 139.559 M 46.152 139.885 C 45.410 140.355, 44.965 141.586, 45.163 142.620 C 45.462 144.180, 46.861 144.642, 53.376 145.335 C 61.841 146.236, 64.412 145.406, 62.035 142.542 C 61.243 141.588, 59.108 141, 56.437 141 C 54.061 141, 51.840 140.550, 51.500 140 C 50.747 138.782, 47.986 138.723, 46.152 139.885 M 37.500 142.004 C 36.400 142.474, 33.775 142.891, 31.667 142.930 C 26.526 143.024, 27.294 145.410, 32.578 145.760 C 36.605 146.028, 41.325 144.259, 41.213 142.525 C 41.126 141.174, 39.857 140.996, 37.500 142.004 M 63.660 153.426 L 59.821 155.744 63.160 156.184 C 64.997 156.426, 69.200 156.596, 72.500 156.562 C 77.939 156.506, 78.530 156.290, 78.820 154.250 C 79.089 152.354, 78.676 152, 76.195 152 C 74.575 152, 71.956 151.800, 70.375 151.554 C 68.507 151.265, 66.155 151.921, 63.660 153.426 M 28 158.469 C 28 159.361, 28.587 159.712, 29.494 159.364 C 30.316 159.048, 30.740 158.388, 30.435 157.895 C 29.563 156.483, 28 156.851, 28 158.469 M 43.750 157.706 C 44.987 157.944, 47.013 157.944, 48.250 157.706 C 49.487 157.467, 48.475 157.272, 46 157.272 C 43.525 157.272, 42.513 157.467, 43.750 157.706 M 0.432 232 C 0.432 245.475, 0.574 250.988, 0.747 244.250 C 0.920 237.512, 0.920 226.488, 0.747 219.750 C 0.574 213.012, 0.432 218.525, 0.432 232 " stroke="none" fill="black" fill-rule="evenodd"/>
	<path fill-opacity="0.534" d="M 112.464 17.083 L 108.500 19.020 112.414 18.546 C 116.437 18.059, 118.853 16.645, 117.301 15.686 C 116.821 15.389, 114.644 16.018, 112.464 17.083 M 98 21.559 C 98 22.416, 98.457 22.835, 99.016 22.490 C 99.575 22.144, 99.774 21.443, 99.457 20.931 C 98.600 19.544, 98 19.802, 98 21.559 M 28.750 41.662 C 29.438 41.940, 30.563 41.940, 31.250 41.662 C 31.938 41.385, 31.375 41.158, 30 41.158 C 28.625 41.158, 28.063 41.385, 28.750 41.662 M 146.500 53.363 C 143.750 54.047, 139.908 55.336, 137.962 56.228 C 132.706 58.637, 122.291 66.575, 120.938 69.204 C 120.288 70.467, 118.732 72.625, 117.480 74 C 116.229 75.375, 114.961 78.300, 114.662 80.500 C 114.363 82.700, 113.586 87.277, 112.935 90.670 C 111.742 96.879, 112.411 110, 113.919 110 C 114.337 110, 115.192 108.875, 115.818 107.500 C 116.445 106.125, 117.642 105, 118.479 105 C 120.454 105, 120.413 105.978, 118.373 107.469 C 115.982 109.218, 118.127 112.575, 122.149 113.380 C 123.920 113.734, 126.134 114.716, 127.068 115.562 C 128.376 116.746, 129.963 116.941, 133.961 116.411 C 140.180 115.586, 141.678 113.233, 139.986 106.948 C 138.269 100.572, 135.235 98.806, 123.766 97.509 C 120.612 97.152, 117.791 96.471, 117.498 95.997 C 116.962 95.129, 121.208 81.458, 122.376 80.290 C 122.719 79.947, 123 78.911, 123 77.988 C 123 77.065, 123.900 75.495, 125 74.500 C 126.100 73.505, 127 72.249, 127 71.710 C 127 71.170, 128.238 69.574, 129.750 68.162 C 132.324 65.758, 133.272 65.568, 144.600 65.182 C 152.808 64.901, 157.417 65.153, 158.933 65.964 C 160.754 66.939, 161.489 66.868, 162.912 65.580 C 163.936 64.653, 166.444 64, 168.978 64 C 172.557 64, 173.851 64.570, 176.526 67.323 C 178.301 69.151, 180.051 71.585, 180.415 72.731 C 180.778 73.877, 181.734 75.068, 182.538 75.376 C 184.125 75.985, 184.541 79.547, 183.128 80.421 C 182.648 80.717, 181.465 85.131, 180.497 90.230 C 179.530 95.328, 178.376 99.899, 177.933 100.387 C 177.489 100.874, 172.936 101.358, 167.813 101.462 C 158.315 101.655, 151 103.874, 151 106.563 C 151 107.219, 150.354 108.291, 149.564 108.947 C 148.775 109.602, 147.816 111.563, 147.433 113.304 C 147.051 115.046, 146.150 117.377, 145.432 118.485 C 144.312 120.215, 143.356 125.330, 143.077 131.089 C 142.962 133.466, 138.370 135.268, 135.857 133.924 C 132.307 132.023, 132.707 133.707, 136.772 137.772 C 138.938 139.938, 141.919 142.014, 143.396 142.385 C 144.873 142.755, 145.820 143.482, 145.500 144 C 145.180 144.518, 146.058 145.228, 147.452 145.577 C 148.846 145.927, 149.726 146.634, 149.409 147.147 C 149.091 147.661, 148.082 147.844, 147.166 147.554 C 143.795 146.487, 129.574 146.158, 127.803 147.106 C 126.361 147.877, 126.193 148.491, 127.005 150.010 C 127.851 151.591, 129.040 151.909, 133.650 151.787 C 138.104 151.670, 139.548 152.029, 140.640 153.523 C 141.678 154.942, 143.631 155.509, 148.566 155.823 C 154.341 156.191, 155.404 155.969, 157.558 153.946 C 160.632 151.058, 160.964 145.441, 158.115 144.536 C 156.150 143.913, 155.095 137.916, 154.678 125 C 154.511 119.835, 154.652 119.479, 157 119.154 C 158.375 118.964, 160.085 118.327, 160.801 117.740 C 161.782 116.933, 162.237 117.190, 162.655 118.789 C 163.695 122.767, 166.746 123.747, 175.446 122.899 C 179.817 122.473, 183.734 122.336, 184.152 122.594 C 185.944 123.702, 179.957 133, 177.452 133 C 176.657 133, 174.204 134.627, 172.003 136.616 C 169.131 139.211, 168 141.031, 168 143.057 C 168 144.611, 167.550 146.160, 167 146.500 C 166.450 146.840, 166 148.160, 166 149.433 C 166 151.721, 161.635 160.490, 159.989 161.507 C 159.521 161.796, 158.852 161.570, 158.503 161.005 C 157.817 159.894, 153.461 163.817, 150.719 168.016 C 149.402 170.034, 147.433 170.892, 140.788 172.343 C 134.674 173.679, 131.844 173.887, 130 173.137 C 119.882 169.018, 114.444 159.486, 112.119 141.793 L 111.500 137.086 107.500 138.945 C 103.947 140.596, 98.455 145.167, 89.703 153.755 C 88.165 155.265, 84.843 160.662, 82.322 165.750 C 79.802 170.838, 77.459 175, 77.118 175 C 76.776 175, 75.439 176.993, 74.147 179.429 C 72.170 183.156, 71.959 184.383, 72.816 187.179 C 73.376 189.005, 74.121 193.736, 74.472 197.691 C 75.202 205.924, 74.856 206.377, 65.500 209.470 C 62.750 210.379, 58.141 212.271, 55.258 213.675 C 51.217 215.642, 47.782 216.372, 40.258 216.863 C 31.125 217.459, 30.480 217.644, 30.180 219.750 C 30.005 220.988, 29.442 222, 28.930 222 C 28.419 222, 28 222.702, 28 223.559 C 28 224.427, 27.518 224.820, 26.913 224.446 C 26.315 224.077, 26.070 222.839, 26.369 221.696 C 26.668 220.553, 26.083 218.016, 25.068 216.059 C 24.054 214.101, 22.836 210.700, 22.362 208.500 C 21.351 203.810, 18.466 202.723, 15.557 205.937 C 14.130 207.514, 13.981 208.273, 14.887 209.364 C 16.758 211.618, 8.395 212.481, 3.698 210.518 L 0 208.973 0 232.437 L 0 255.900 128.250 255.700 L 256.500 255.500 256.746 231.500 C 256.881 218.300, 256.624 208.071, 256.175 208.769 C 255.520 209.787, 254.580 209.756, 251.429 208.614 C 245.443 206.445, 237.103 202.288, 231.044 198.453 C 228.044 196.554, 224.583 195, 223.353 195 C 222.124 195, 220.840 194.550, 220.500 194 C 220.160 193.450, 218.982 193, 217.883 193 C 216.783 193, 213.872 191.088, 211.412 188.750 C 207.542 185.071, 206.695 183.493, 205.107 177 C 202.382 165.860, 201.769 164.851, 195.112 160.559 C 191.751 158.391, 189 155.916, 189.001 155.059 C 189.001 154.201, 191.889 150.917, 195.419 147.761 C 199.561 144.057, 202.067 140.971, 202.487 139.058 C 202.845 137.428, 204.008 134.988, 205.072 133.636 C 206.562 131.741, 206.976 129.726, 206.878 124.839 C 206.808 121.353, 207.257 117.233, 207.875 115.685 C 210.506 109.100, 208.432 85.231, 204.909 81.550 C 204.409 81.027, 204 79.967, 204 79.194 C 204 77.858, 202.532 75.765, 196.258 68.154 C 192.839 64.006, 186.885 59.936, 178.181 55.797 C 172.249 52.976, 170.379 52.592, 161.500 52.369 C 155.954 52.230, 149.273 52.673, 146.500 53.363 M 69.173 58.868 C 59.346 69.414, 56 73.431, 56 74.684 C 56 76.369, 50.099 82, 48.334 82 C 47.663 82, 46.453 82.943, 45.646 84.096 C 43.891 86.601, 41.453 86.094, 36.922 82.281 C 33.909 79.746, 33.822 79.734, 31.961 81.600 C 29.264 84.304, 30.878 86.832, 34.304 85.271 C 36.449 84.294, 36.882 84.446, 37.819 86.502 C 38.646 88.317, 38.561 89.119, 37.444 90.047 C 36.650 90.706, 36 91.879, 36 92.654 C 36 93.429, 35.325 94.322, 34.500 94.638 C 33.675 94.955, 33 95.976, 33 96.907 C 33 97.838, 32.467 99.133, 31.817 99.783 C 31.166 100.434, 30.895 101.228, 31.214 101.547 C 32.209 102.542, 39.461 96.765, 43.484 91.770 C 45.598 89.147, 48.041 87, 48.914 87 C 50.877 87, 55.680 81.124, 56.550 77.657 C 56.904 76.245, 58.726 73.921, 60.597 72.494 C 62.469 71.066, 64 69.262, 64 68.484 C 64 67.706, 65.350 65.688, 67 64 C 68.650 62.312, 70 60.497, 70 59.966 C 70 59.434, 70.675 59, 71.500 59 C 72.325 59, 73 58.325, 73 57.500 C 73 55.340, 72.193 55.628, 69.173 58.868 M 28 104.559 C 28 105.416, 28.450 105.840, 29 105.500 C 29.550 105.160, 30 104.459, 30 103.941 C 30 103.423, 29.550 103, 29 103 C 28.450 103, 28 103.702, 28 104.559 M 47.800 142.200 C 48.733 143.133, 49.267 143.133, 50.200 142.200 C 51.133 141.267, 50.867 141, 49 141 C 47.133 141, 46.867 141.267, 47.800 142.200 M 139.500 207 C 139.840 207.550, 140.316 208, 140.559 208 C 140.802 208, 141 207.550, 141 207 C 141 206.450, 140.523 206, 139.941 206 C 139.359 206, 139.160 206.450, 139.500 207 M 0.431 232.500 C 0.432 245.700, 0.574 250.962, 0.747 244.193 C 0.921 237.424, 0.920 226.624, 0.746 220.193 C 0.572 213.762, 0.431 219.300, 0.431 232.500 M 10.604 221.590 C 9.707 223.928, 11.589 225.811, 13.207 224.193 C 14.150 223.250, 14.070 222.642, 12.844 221.415 C 11.417 219.988, 11.212 220.004, 10.604 221.590 " stroke="none" fill="black" fill-rule="evenodd"/>
	<path fill-opacity="0.410" d="M 158.192 55.671 C 154.474 56.449, 156.279 58.473, 160.998 58.816 C 166.246 59.198, 170.645 58.244, 169.395 56.996 C 168.263 55.866, 161.235 55.035, 158.192 55.671 M 140 58 C 140 58.550, 140.450 59, 141 59 C 141.550 59, 142 58.550, 142 58 C 142 57.450, 141.550 57, 141 57 C 140.450 57, 140 57.450, 140 58 M 171 58.378 C 171 59.135, 171.675 60.315, 172.500 61 C 173.729 62.020, 174 61.951, 174 60.622 C 174 59.651, 174.826 59, 176.059 59 C 177.191 59, 177.840 58.550, 177.500 58 C 176.541 56.448, 171 56.770, 171 58.378 M 179.203 61.047 C 178.051 62.891, 178.476 63.711, 183.477 69.297 L 189.029 75.500 188.770 85.342 C 188.628 90.755, 188.171 95.394, 187.756 95.651 C 187.340 95.908, 187 97.035, 187 98.155 C 187 99.275, 186.030 101.554, 184.844 103.219 C 182.789 106.105, 182.433 106.221, 177.275 105.689 C 172.638 105.210, 172.035 105.337, 173.060 106.572 C 173.718 107.365, 175.436 108.583, 176.878 109.280 C 178.837 110.226, 179.500 111.299, 179.500 113.523 C 179.500 116.255, 179.794 116.506, 183.064 116.576 C 188.010 116.681, 189.002 117.559, 188.985 121.809 C 188.970 125.410, 187.056 132.277, 185.685 133.648 C 185.308 134.025, 185 135.383, 185 136.667 C 185 138.345, 184.430 139, 182.969 139 C 181.851 139, 180.683 139.787, 180.372 140.750 C 178.960 145.120, 176.434 148.937, 174.313 149.903 C 171.438 151.213, 171.349 152.659, 174.091 153.529 C 175.685 154.035, 176.024 154.706, 175.516 156.346 C 175.149 157.531, 174.529 159.850, 174.139 161.500 C 173.595 163.798, 172.793 164.574, 170.714 164.816 C 169.147 164.999, 168 165.749, 168 166.591 C 168 167.406, 166.699 168.310, 165.051 168.640 C 163.429 168.964, 161.334 170.078, 160.396 171.115 C 159.458 172.152, 158.122 173, 157.428 173 C 156.734 173, 156.017 173.338, 155.833 173.751 C 155.189 175.203, 142.454 177.889, 138.500 177.406 C 136.300 177.138, 133.825 177.395, 133 177.978 C 131.700 178.896, 131.767 179.237, 133.500 180.525 C 141.250 186.285, 142 187.263, 142 191.611 L 142 195.874 145.492 195.308 C 149.620 194.638, 152 196.216, 152 199.622 C 152 201.690, 152.490 202.010, 155.750 202.077 C 163.218 202.229, 166 203.276, 166 205.933 C 166 208.256, 162.779 210.379, 161.379 208.979 C 160.810 208.410, 159.389 208.605, 157.695 209.483 C 156.179 210.270, 154.252 210.650, 153.412 210.328 C 152.548 209.996, 149.998 211.099, 147.530 212.871 C 145.134 214.592, 142.684 216, 142.087 216 C 141.489 216, 141 216.691, 141 217.535 C 141 220.298, 137.850 224, 135.499 224 C 133.879 224, 132.743 222.979, 131.538 220.439 C 130.609 218.481, 128.499 216.058, 126.849 215.054 C 125.199 214.051, 123.194 212.294, 122.392 211.149 C 120.796 208.871, 118.947 188.208, 119.335 177 C 119.520 171.655, 119.155 169.898, 117.280 167.110 C 116.026 165.246, 115 163.309, 115 162.806 C 115 162.302, 114.150 160.002, 113.110 157.695 C 111.524 154.173, 109.694 145.827, 109.520 141.321 C 109.417 138.647, 108.045 139.307, 101.927 144.976 C 98.392 148.252, 94.926 150.947, 94.225 150.966 C 93.524 150.985, 92.537 152.086, 92.033 153.414 C 91.528 154.742, 90.189 156.123, 89.057 156.482 C 87.926 156.841, 87 157.637, 87 158.252 C 87 160.133, 82.725 168.450, 81.321 169.300 C 80.595 169.740, 80 171.154, 80 172.443 C 80 173.732, 79.325 175.045, 78.500 175.362 C 77.675 175.678, 77 176.571, 77 177.346 C 77 178.121, 76.351 179.294, 75.557 179.953 C 73.775 181.432, 74.060 198.187, 75.878 198.793 C 77.647 199.382, 77.187 203.823, 75.157 205.750 C 72.360 208.405, 67.113 211, 64.541 211 C 63.278 211, 61.685 211.675, 61 212.500 C 60.315 213.325, 59 214, 58.078 214 C 57.155 214, 55.973 214.381, 55.450 214.846 C 53.832 216.288, 39.185 219.254, 35.997 218.786 C 33.500 218.420, 32.545 218.908, 30.488 221.605 C 29.120 223.399, 28 225.572, 28 226.433 C 28 228.435, 25.596 228.453, 23.609 226.466 C 22.425 225.282, 22.304 224.331, 23.078 222.294 C 24.374 218.886, 23.689 217.235, 20.811 216.828 C 19.283 216.611, 18.389 215.717, 18.172 214.188 C 17.883 212.145, 17.475 211.958, 14.672 212.581 C 9.862 213.652, 4.993 213.225, 2.363 211.502 L 0 209.954 0 232.830 L -0 255.706 53.500 255.912 C 104.522 256.109, 107.001 256.034, 107.015 254.309 C 107.032 252.233, 110.308 241.359, 111.179 240.488 C 112.308 239.358, 113.113 248.919, 112.056 250.896 C 109.389 255.879, 109.765 256, 127.872 256 L 144.744 256 145.344 252.250 C 145.674 250.188, 145.692 247.538, 145.385 246.363 C 144.712 243.790, 146.635 242.214, 147.371 244.735 C 147.654 245.706, 148.188 248.641, 148.558 251.259 L 149.230 256.017 202.865 255.759 L 256.500 255.500 256.681 232 C 256.781 219.075, 256.652 208.999, 256.395 209.609 C 255.697 211.266, 249.560 209.831, 241.680 206.169 C 237.929 204.426, 234.247 203, 233.498 203 C 232.748 203, 231.841 202.074, 231.482 200.943 C 230.698 198.474, 226.948 196.860, 221.491 196.642 C 217.267 196.473, 215.927 195.584, 208.455 188 C 204.704 184.193, 204.020 182.883, 204.011 179.493 C 203.994 173.308, 202.492 169.426, 198.618 165.551 C 196.665 163.598, 194.779 162, 194.427 162 C 193.357 162, 186 155.890, 186 155 C 186 154.543, 187.788 152.475, 189.973 150.404 C 193.087 147.453, 193.701 146.345, 192.815 145.277 C 192.020 144.319, 191.999 143.601, 192.743 142.857 C 193.487 142.113, 193.994 142.407, 194.452 143.848 C 195.459 147.020, 198 145.341, 198 141.504 C 198 139.123, 198.433 138.260, 199.577 138.361 C 201.830 138.559, 204.705 130.505, 204.211 125.380 C 203.947 122.636, 204.431 120.130, 205.657 117.880 C 208.116 113.370, 208.201 91.022, 205.770 88.237 C 204.936 87.282, 203.933 84.715, 203.541 82.534 C 203.149 80.353, 201.506 76.978, 199.889 75.034 C 192.733 66.429, 190.400 64.089, 188.930 64.046 C 188.067 64.021, 186.382 62.875, 185.187 61.500 C 182.548 58.464, 180.894 58.339, 179.203 61.047 M 156 62 C 156 62.550, 156.900 63, 158 63 C 159.100 63, 160 62.550, 160 62 C 160 61.450, 159.100 61, 158 61 C 156.900 61, 156 61.450, 156 62 M 125 66.465 C 125 67.270, 124.100 68.411, 123 69 C 121.900 69.589, 121 70.660, 121 71.380 C 121 72.101, 120.102 73.503, 119.004 74.497 C 117.480 75.875, 117.272 76.623, 118.126 77.652 C 119.841 79.719, 120.318 79.349, 122.856 73.982 C 124.152 71.242, 125.562 69, 125.989 69 C 126.417 69, 127.002 68.100, 127.290 67 C 127.630 65.700, 127.320 65, 126.406 65 C 125.633 65, 125 65.659, 125 66.465 M 115.041 85.758 C 113.409 95.435, 113.079 99.931, 113.963 100.477 C 114.383 100.737, 114.974 98.227, 115.275 94.901 C 115.577 91.574, 116.478 88.098, 117.278 87.176 C 118.747 85.482, 120.792 78.875, 119.423 80.243 C 119.017 80.650, 118.124 80.518, 117.439 79.950 C 116.481 79.155, 115.929 80.492, 115.041 85.758 M 41.813 88.683 C 42.534 88.972, 43.397 88.936, 43.729 88.604 C 44.061 88.272, 43.471 88.036, 42.417 88.079 C 41.252 88.127, 41.015 88.364, 41.813 88.683 M 127.656 100.750 C 127.403 101.162, 128.517 101.596, 130.133 101.713 C 131.808 101.834, 132.816 101.511, 132.477 100.963 C 131.774 99.825, 128.320 99.673, 127.656 100.750 M 114.079 103.583 C 114.127 104.748, 114.364 104.985, 114.683 104.188 C 114.972 103.466, 114.936 102.603, 114.604 102.271 C 114.272 101.939, 114.036 102.529, 114.079 103.583 M 162.667 103.667 C 161.266 105.067, 162.104 105.999, 164.750 105.985 C 168.784 105.962, 170.792 104.444, 167.835 103.652 C 164.807 102.842, 163.488 102.845, 162.667 103.667 M 127.040 107.456 L 122.580 108.650 127.186 110.950 C 131.723 113.216, 131.830 113.222, 134.364 111.375 C 135.779 110.344, 136.951 108.990, 136.969 108.367 C 136.996 107.388, 133.454 105.804, 132 106.144 C 131.725 106.209, 129.493 106.799, 127.040 107.456 M 150.964 111.450 C 149.700 112.695, 149.720 116, 150.992 116 C 151.537 116, 152.545 115.100, 153.232 114 C 154.633 111.757, 156.215 111.276, 155.426 113.333 C 155.048 114.317, 155.711 114.549, 157.957 114.220 C 160.083 113.908, 161 113.219, 161 111.933 C 161 110.387, 160.276 110.126, 156.464 110.297 C 153.970 110.408, 151.495 110.927, 150.964 111.450 M 164.033 113.614 C 164.052 114.101, 164.873 115.465, 165.858 116.645 C 167.149 118.190, 168.395 118.647, 170.313 118.281 C 172.175 117.925, 173.161 118.257, 173.595 119.386 C 174.547 121.867, 176.709 121.301, 177.259 118.428 C 177.653 116.362, 177.247 115.664, 175.195 114.884 C 171.395 113.439, 163.995 112.597, 164.033 113.614 M 144.667 133.667 C 144.300 134.033, 144 135.383, 144 136.667 C 144 139.441, 146.996 139.861, 149.429 137.429 C 151.572 135.285, 151.404 134.341, 148.750 133.630 C 145.864 132.857, 145.473 132.860, 144.667 133.667 M 181.494 150.009 C 180.621 151.423, 181.944 155.153, 183.072 154.456 C 184.288 153.704, 184.277 149, 183.059 149 C 182.541 149, 181.837 149.454, 181.494 150.009 M 200 176.500 C 200 177.325, 200.436 178, 200.969 178 C 201.501 178, 201.678 177.325, 201.362 176.500 C 201.045 175.675, 200.609 175, 200.393 175 C 200.177 175, 200 175.675, 200 176.500 M 17 208.500 C 17.685 209.325, 18.640 210, 19.122 210 C 19.605 210, 20 209.325, 20 208.500 C 20 207.638, 19.098 207, 17.878 207 C 16.104 207, 15.960 207.247, 17 208.500 M 0.428 233 C 0.432 245.925, 0.576 250.719, 0.748 243.653 C 1.016 232.667, 1.268 230.977, 2.487 231.989 C 4.116 233.342, 6 232.543, 6 230.500 C 6 228.459, 4.117 227.658, 2.492 229.006 C 1.284 230.009, 1.023 228.642, 0.747 219.843 C 0.568 214.154, 0.425 220.075, 0.428 233 M 9.438 221.393 C 9.078 222.824, 9.044 224.672, 9.361 225.498 C 10.140 227.528, 15.607 227.466, 16.393 225.418 C 17.405 222.782, 17.075 220.001, 15.750 219.986 C 15.063 219.979, 13.508 219.707, 12.295 219.382 C 10.524 218.907, 9.962 219.303, 9.438 221.393 M 200 227.059 C 200 227.641, 200.450 227.840, 201 227.500 C 201.550 227.160, 202 226.684, 202 226.441 C 202 226.198, 201.550 226, 201 226 C 200.450 226, 200 226.477, 200 227.059 M 18 230.440 C 18 232.537, 18.526 232.923, 21.750 233.190 C 25.182 233.474, 25.476 233.733, 25.212 236.250 C 25.010 238.183, 25.381 239, 26.462 239 C 27.478 239, 27.993 238.067, 27.979 236.250 C 27.963 234.206, 26.960 232.794, 24.069 230.750 C 19.281 227.364, 18 227.298, 18 230.440 M 24.250 244.662 C 22.315 245.443, 22.761 246.570, 25.500 247.818 C 27.801 248.866, 28 248.759, 28 246.479 C 28 244.099, 26.930 243.581, 24.250 244.662 " stroke="none" fill="black" fill-rule="evenodd"/>
</svg>